<svg xmlns="http://www.w3.org/2000/svg" xmlns:xlink="http://www.w3.org/1999/xlink" width="1133" zoomAndPan="magnify" viewBox="0 0 850.07996 850.499975" height="1133" preserveAspectRatio="xMidYMid meet" version="1.0"><defs><clipPath id="id1"><path d="M 0 0.210938 L 849.082031 0.210938 L 849.082031 849.789062 L 0 849.789062 Z M 0 0.210938 " clip-rule="nonzero"/></clipPath><clipPath id="id2"><path d="M 0 0.210938 L 849.082031 0.210938 L 849.082031 849.289062 L 0 849.289062 Z M 0 0.210938 " clip-rule="nonzero"/></clipPath><clipPath id="id3"><path d="M 239 652 L 569 652 L 569 849.289062 L 239 849.289062 Z M 239 652 " clip-rule="nonzero"/></clipPath><clipPath id="id4"><path d="M 747 45 L 849.082031 45 L 849.082031 184 L 747 184 Z M 747 45 " clip-rule="nonzero"/></clipPath><clipPath id="id5"><path d="M 593 732 L 679 732 L 679 849.289062 L 593 849.289062 Z M 593 732 " clip-rule="nonzero"/></clipPath><clipPath id="id6"><path d="M 508 737 L 594 737 L 594 849.289062 L 508 849.289062 Z M 508 737 " clip-rule="nonzero"/></clipPath><clipPath id="id7"><path d="M 832 148 L 849.082031 148 L 849.082031 182 L 832 182 Z M 832 148 " clip-rule="nonzero"/></clipPath><clipPath id="id8"><path d="M 832 165 L 849.082031 165 L 849.082031 233 L 832 233 Z M 832 165 " clip-rule="nonzero"/></clipPath><clipPath id="id9"><path d="M 0 0.210938 L 83 0.210938 L 83 33 L 0 33 Z M 0 0.210938 " clip-rule="nonzero"/></clipPath><clipPath id="id10"><path d="M 0 0.210938 L 113 0.210938 L 113 45 L 0 45 Z M 0 0.210938 " clip-rule="nonzero"/></clipPath><clipPath id="id11"><path d="M 0 0.210938 L 142 0.210938 L 142 56 L 0 56 Z M 0 0.210938 " clip-rule="nonzero"/></clipPath><clipPath id="id12"><path d="M 72 742 L 234 742 L 234 849.289062 L 72 849.289062 Z M 72 742 " clip-rule="nonzero"/></clipPath><clipPath id="id13"><path d="M 95 734 L 256 734 L 256 849.289062 L 95 849.289062 Z M 95 734 " clip-rule="nonzero"/></clipPath><clipPath id="id14"><path d="M 783 522 L 849.082031 522 L 849.082031 586 L 783 586 Z M 783 522 " clip-rule="nonzero"/></clipPath><clipPath id="id15"><path d="M 599 0.210938 L 786 0.210938 L 786 103 L 599 103 Z M 599 0.210938 " clip-rule="nonzero"/></clipPath></defs><g clip-path="url(#id1)"><path fill="#ffffff" d="M 0 0.210938 L 849.082031 0.210938 L 849.082031 856.777344 L 0 856.777344 Z M 0 0.210938 " fill-opacity="1" fill-rule="nonzero"/></g><g clip-path="url(#id2)"><path fill="#ffffff" d="M 0 0.210938 L 849.082031 0.210938 L 849.082031 849.289062 L 0 849.289062 Z M 0 0.210938 " fill-opacity="1" fill-rule="nonzero"/><path fill="#ffffff" d="M 0 0.210938 L 849.082031 0.210938 L 849.082031 849.289062 L 0 849.289062 Z M 0 0.210938 " fill-opacity="1" fill-rule="nonzero"/></g><g clip-path="url(#id3)"><path fill="#34419f" d="M 403.871094 652.761719 C 371.78125 652.761719 341.871094 662 316.578125 677.914062 C 326.4375 678.300781 331.679688 684.136719 335.90625 688.875 C 339.800781 693.238281 342.878906 696.691406 349.148438 696.691406 C 355.410156 696.691406 358.488281 693.238281 362.375 688.875 C 366.757812 683.96875 372.195312 677.875 382.730469 677.875 C 393.265625 677.875 398.714844 683.96875 403.089844 688.875 C 406.984375 693.238281 410.070312 696.691406 416.332031 696.691406 C 422.605469 696.691406 425.679688 693.238281 429.585938 688.875 C 433.960938 683.96875 439.410156 677.875 449.945312 677.875 L 449.945312 687.410156 C 443.683594 687.410156 440.597656 690.855469 436.691406 695.226562 C 432.328125 700.121094 426.867188 706.226562 416.332031 706.226562 C 405.796875 706.226562 400.359375 700.121094 395.976562 695.226562 C 392.078125 690.855469 388.992188 687.410156 382.730469 687.410156 C 376.46875 687.410156 373.394531 690.855469 369.496094 695.226562 C 365.113281 700.121094 359.675781 706.226562 349.148438 706.226562 C 338.617188 706.226562 333.164062 700.121094 328.792969 695.226562 C 324.894531 690.855469 321.820312 687.410156 315.546875 687.410156 C 309.289062 687.410156 306.222656 690.855469 302.324219 695.226562 C 298.039062 700.003906 292.738281 705.917969 282.6875 706.195312 C 275.585938 713.949219 269.226562 722.398438 263.71875 731.417969 C 265.617188 733.070312 267.230469 734.878906 268.722656 736.550781 C 272.621094 740.925781 275.707031 744.367188 281.96875 744.367188 C 288.226562 744.367188 291.304688 740.925781 295.203125 736.550781 C 299.574219 731.65625 305.015625 725.554688 315.546875 725.554688 C 326.082031 725.554688 331.53125 731.65625 335.90625 736.550781 C 339.800781 740.925781 342.878906 744.367188 349.148438 744.367188 C 355.410156 744.367188 358.488281 740.925781 362.375 736.550781 C 366.757812 731.65625 372.195312 725.554688 382.730469 725.554688 C 393.265625 725.554688 398.714844 731.65625 403.089844 736.550781 C 406.984375 740.925781 410.070312 744.367188 416.332031 744.367188 C 422.605469 744.367188 425.679688 740.925781 429.585938 736.550781 C 433.960938 731.65625 439.410156 725.554688 449.945312 725.554688 L 449.945312 735.089844 C 443.683594 735.089844 440.597656 738.539062 436.691406 742.902344 C 432.328125 747.800781 426.867188 753.902344 416.332031 753.902344 C 405.796875 753.902344 400.359375 747.800781 395.976562 742.902344 C 392.078125 738.539062 388.992188 735.089844 382.730469 735.089844 C 376.46875 735.089844 373.394531 738.539062 369.496094 742.902344 C 365.113281 747.800781 359.675781 753.902344 349.148438 753.902344 C 338.617188 753.902344 333.164062 747.800781 328.792969 742.902344 C 324.894531 738.539062 321.820312 735.089844 315.546875 735.089844 C 309.289062 735.089844 306.222656 738.539062 302.324219 742.902344 C 297.941406 747.800781 292.5 753.902344 281.96875 753.902344 C 271.433594 753.902344 265.992188 747.800781 261.609375 742.902344 C 260.671875 741.84375 259.769531 740.84375 258.871094 739.933594 C 253.273438 750.460938 248.800781 761.675781 245.574219 773.40625 C 246.476562 773.300781 247.394531 773.230469 248.375 773.230469 C 258.910156 773.230469 264.351562 779.332031 268.722656 784.230469 C 272.621094 788.601562 275.707031 792.042969 281.96875 792.042969 C 288.226562 792.042969 291.304688 788.601562 295.203125 784.230469 C 299.574219 779.332031 305.015625 773.230469 315.546875 773.230469 C 326.082031 773.230469 331.53125 779.332031 335.90625 784.230469 C 339.800781 788.601562 342.878906 792.042969 349.148438 792.042969 C 355.410156 792.042969 358.488281 788.601562 362.375 784.230469 C 366.757812 779.332031 372.195312 773.230469 382.730469 773.230469 C 393.265625 773.230469 398.714844 779.332031 403.089844 784.230469 C 406.984375 788.601562 410.070312 792.042969 416.332031 792.042969 C 422.605469 792.042969 425.679688 788.601562 429.585938 784.230469 C 433.960938 779.332031 439.410156 773.230469 449.945312 773.230469 L 449.945312 782.765625 C 443.683594 782.765625 440.597656 786.21875 436.691406 790.589844 C 432.328125 795.484375 426.867188 801.578125 416.332031 801.578125 C 405.796875 801.578125 400.359375 795.484375 395.976562 790.589844 C 392.078125 786.21875 388.992188 782.765625 382.730469 782.765625 C 376.46875 782.765625 373.394531 786.21875 369.496094 790.589844 C 365.113281 795.484375 359.675781 801.578125 349.148438 801.578125 C 338.617188 801.578125 333.164062 795.484375 328.792969 790.589844 C 324.894531 786.21875 321.820312 782.765625 315.546875 782.765625 C 309.289062 782.765625 306.222656 786.21875 302.324219 790.578125 C 297.941406 795.484375 292.5 801.578125 281.96875 801.578125 C 271.433594 801.578125 265.992188 795.484375 261.609375 790.589844 C 257.714844 786.21875 254.636719 782.765625 248.375 782.765625 C 246.289062 782.765625 244.566406 783.179688 243.035156 783.863281 C 240.839844 794.535156 239.699219 805.605469 239.699219 816.929688 C 239.699219 818.800781 239.78125 820.640625 239.839844 822.488281 C 242.261719 821.519531 245.070312 820.917969 248.375 820.917969 C 258.910156 820.917969 264.351562 827.011719 268.722656 831.90625 C 272.621094 836.277344 275.707031 839.71875 281.96875 839.71875 C 288.226562 839.71875 291.304688 836.277344 295.203125 831.90625 C 299.574219 827.011719 305.015625 820.917969 315.546875 820.917969 C 326.082031 820.917969 331.53125 827.011719 335.90625 831.90625 C 339.800781 836.277344 342.878906 839.71875 349.148438 839.71875 C 355.410156 839.71875 358.488281 836.277344 362.375 831.90625 C 366.757812 827.011719 372.195312 820.917969 382.730469 820.917969 C 393.265625 820.917969 398.714844 827.011719 403.089844 831.90625 C 406.984375 836.277344 410.070312 839.71875 416.332031 839.71875 C 422.605469 839.71875 425.679688 836.277344 429.585938 831.90625 C 433.960938 827.011719 439.410156 820.917969 449.945312 820.917969 L 449.945312 830.441406 C 443.683594 830.441406 440.597656 833.894531 436.691406 838.265625 C 432.328125 843.164062 426.867188 849.257812 416.332031 849.257812 C 405.796875 849.257812 400.359375 843.164062 395.976562 838.265625 C 392.078125 833.894531 388.992188 830.441406 382.730469 830.441406 C 376.46875 830.441406 373.394531 833.894531 369.496094 838.265625 C 365.113281 843.164062 359.675781 849.257812 349.148438 849.257812 C 338.617188 849.257812 333.164062 843.164062 328.792969 838.265625 C 324.894531 833.894531 321.820312 830.441406 315.546875 830.441406 C 309.289062 830.441406 306.222656 833.894531 302.324219 838.265625 C 297.941406 843.164062 292.5 849.257812 281.96875 849.257812 C 271.433594 849.257812 265.992188 843.164062 261.609375 838.265625 C 257.714844 833.894531 254.636719 830.441406 248.375 830.441406 C 245.042969 830.441406 242.617188 831.441406 240.492188 833.015625 C 241.894531 847.417969 245.160156 861.265625 250.027344 874.351562 C 259.492188 874.945312 264.585938 880.640625 268.722656 885.28125 C 272.621094 889.644531 275.707031 893.09375 281.96875 893.09375 C 288.226562 893.09375 291.304688 889.644531 295.203125 885.28125 C 299.574219 880.382812 305.015625 874.28125 315.546875 874.28125 C 326.082031 874.28125 331.53125 880.382812 335.90625 885.28125 C 339.800781 889.644531 342.878906 893.09375 349.148438 893.09375 C 355.410156 893.09375 358.488281 889.644531 362.375 885.28125 C 366.757812 880.382812 372.195312 874.28125 382.730469 874.28125 C 393.265625 874.28125 398.714844 880.382812 403.089844 885.28125 C 406.984375 889.644531 410.070312 893.09375 416.332031 893.09375 C 422.605469 893.09375 425.679688 889.644531 429.585938 885.28125 C 433.960938 880.382812 439.410156 874.28125 449.945312 874.28125 L 449.945312 883.816406 C 443.683594 883.816406 440.597656 887.269531 436.691406 891.632812 C 432.328125 896.539062 426.867188 902.628906 416.332031 902.628906 C 405.796875 902.628906 400.359375 896.539062 395.976562 891.632812 C 392.078125 887.269531 388.992188 883.816406 382.730469 883.816406 C 376.46875 883.816406 373.394531 887.269531 369.496094 891.632812 C 365.113281 896.539062 359.675781 902.628906 349.148438 902.628906 C 338.617188 902.628906 333.164062 896.539062 328.792969 891.632812 C 324.894531 887.269531 321.820312 883.816406 315.546875 883.816406 C 309.289062 883.816406 306.222656 887.269531 302.324219 891.632812 C 297.941406 896.539062 292.5 902.628906 281.96875 902.628906 C 271.433594 902.628906 265.992188 896.539062 261.609375 891.632812 C 259.285156 889.019531 257.226562 886.753906 254.636719 885.339844 C 264.132812 906.03125 277.773438 924.402344 294.539062 939.386719 C 294.765625 939.128906 294.972656 938.902344 295.203125 938.65625 C 299.574219 933.75 305.015625 927.65625 315.546875 927.65625 C 326.082031 927.65625 331.53125 933.75 335.90625 938.65625 C 339.800781 943.015625 342.878906 946.46875 349.148438 946.46875 C 355.410156 946.46875 358.488281 943.015625 362.375 938.65625 C 366.757812 933.75 372.195312 927.65625 382.730469 927.65625 C 393.265625 927.65625 398.714844 933.75 403.089844 938.65625 C 406.984375 943.015625 410.070312 946.46875 416.332031 946.46875 C 422.605469 946.46875 425.679688 943.015625 429.585938 938.644531 C 433.960938 933.75 439.410156 927.65625 449.945312 927.65625 L 449.945312 937.179688 C 443.683594 937.179688 440.597656 940.632812 436.691406 944.996094 C 432.328125 949.902344 426.867188 955.996094 416.332031 955.996094 C 405.796875 955.996094 400.359375 949.902344 395.976562 944.996094 C 392.078125 940.632812 388.992188 937.179688 382.730469 937.179688 C 376.46875 937.179688 373.394531 940.632812 369.496094 944.996094 C 365.113281 949.902344 359.675781 955.996094 349.148438 955.996094 C 338.617188 955.996094 333.164062 949.902344 328.792969 944.996094 C 324.894531 940.632812 321.820312 937.179688 315.546875 937.179688 C 309.289062 937.179688 306.222656 940.632812 302.324219 944.996094 L 301.847656 945.519531 C 329.871094 967.785156 365.3125 981.109375 403.871094 981.109375 C 494.542969 981.109375 568.046875 907.617188 568.046875 816.929688 C 568.046875 726.265625 494.542969 652.761719 403.871094 652.761719 " fill-opacity="1" fill-rule="nonzero"/></g><g clip-path="url(#id4)"><path fill="#34419f" d="M 816.613281 45.988281 C 803.148438 45.988281 790.597656 49.875 779.972656 56.550781 C 784.109375 56.710938 786.3125 59.164062 788.085938 61.152344 C 789.726562 62.980469 791.023438 64.425781 793.644531 64.425781 C 796.273438 64.425781 797.570312 62.980469 799.203125 61.152344 C 801.042969 59.09375 803.316406 56.53125 807.738281 56.53125 C 812.160156 56.53125 814.457031 59.09375 816.285156 61.152344 C 817.925781 62.980469 819.222656 64.425781 821.84375 64.425781 C 824.484375 64.425781 825.769531 62.980469 827.414062 61.152344 C 829.253906 59.09375 831.539062 56.53125 835.960938 56.53125 L 835.960938 60.539062 C 833.328125 60.539062 832.03125 61.980469 830.390625 63.8125 C 828.5625 65.878906 826.277344 68.429688 821.84375 68.429688 C 817.433594 68.429688 815.136719 65.878906 813.308594 63.8125 C 811.667969 61.980469 810.371094 60.539062 807.738281 60.539062 C 805.117188 60.539062 803.820312 61.980469 802.179688 63.8125 C 800.351562 65.878906 798.066406 68.429688 793.644531 68.429688 C 789.222656 68.429688 786.9375 65.878906 785.109375 63.8125 C 783.464844 61.980469 782.179688 60.539062 779.546875 60.539062 C 776.917969 60.539062 775.632812 61.980469 773.988281 63.8125 C 772.199219 65.832031 769.964844 68.3125 765.75 68.421875 C 762.773438 71.6875 760.101562 75.226562 757.789062 79.003906 C 758.578125 79.707031 759.261719 80.460938 759.894531 81.171875 C 761.527344 82.992188 762.8125 84.445312 765.441406 84.445312 C 768.074219 84.445312 769.371094 82.992188 771.003906 81.171875 C 772.832031 79.105469 775.125 76.542969 779.546875 76.542969 C 783.96875 76.542969 786.253906 79.105469 788.085938 81.171875 C 789.726562 82.992188 791.023438 84.445312 793.644531 84.445312 C 796.273438 84.445312 797.570312 82.992188 799.203125 81.171875 C 801.042969 79.105469 803.316406 76.542969 807.738281 76.542969 C 812.160156 76.542969 814.457031 79.105469 816.285156 81.171875 C 817.925781 82.992188 819.222656 84.445312 821.84375 84.445312 C 824.484375 84.445312 825.769531 82.992188 827.414062 81.171875 C 829.253906 79.105469 831.539062 76.542969 835.960938 76.542969 L 835.960938 80.558594 C 833.328125 80.558594 832.03125 82.003906 830.390625 83.832031 C 828.5625 85.890625 826.277344 88.453125 821.84375 88.453125 C 817.433594 88.453125 815.136719 85.890625 813.308594 83.832031 C 811.667969 82.003906 810.371094 80.558594 807.738281 80.558594 C 805.117188 80.558594 803.820312 82.003906 802.179688 83.832031 C 800.351562 85.890625 798.066406 88.453125 793.644531 88.453125 C 789.222656 88.453125 786.9375 85.890625 785.109375 83.832031 C 783.464844 82.003906 782.179688 80.558594 779.546875 80.558594 C 776.917969 80.558594 775.632812 82.003906 773.988281 83.832031 C 772.160156 85.890625 769.863281 88.453125 765.441406 88.453125 C 761.023438 88.453125 758.746094 85.890625 756.90625 83.832031 C 756.511719 83.386719 756.136719 82.972656 755.75 82.585938 C 753.40625 86.996094 751.527344 91.714844 750.171875 96.632812 C 750.546875 96.59375 750.941406 96.5625 751.347656 96.5625 C 755.769531 96.5625 758.054688 99.125 759.894531 101.171875 C 761.527344 103.011719 762.8125 104.457031 765.441406 104.457031 C 768.074219 104.457031 769.371094 103.011719 771.003906 101.171875 C 772.832031 99.125 775.125 96.5625 779.546875 96.5625 C 783.96875 96.5625 786.253906 99.125 788.085938 101.171875 C 789.726562 103.011719 791.023438 104.457031 793.644531 104.457031 C 796.273438 104.457031 797.570312 103.011719 799.203125 101.171875 C 801.042969 99.125 803.316406 96.5625 807.738281 96.5625 C 812.160156 96.5625 814.457031 99.125 816.285156 101.171875 C 817.925781 103.011719 819.222656 104.457031 821.84375 104.457031 C 824.484375 104.457031 825.769531 103.011719 827.414062 101.171875 C 829.253906 99.125 831.539062 96.5625 835.960938 96.5625 L 835.960938 100.570312 C 833.328125 100.570312 832.03125 102.011719 830.390625 103.84375 C 828.5625 105.902344 826.277344 108.460938 821.84375 108.460938 C 817.433594 108.460938 815.136719 105.902344 813.308594 103.84375 C 811.667969 102.011719 810.371094 100.570312 807.738281 100.570312 C 805.117188 100.570312 803.820312 102.011719 802.179688 103.84375 C 800.351562 105.902344 798.066406 108.460938 793.644531 108.460938 C 789.222656 108.460938 786.9375 105.902344 785.109375 103.84375 C 783.464844 102.011719 782.179688 100.570312 779.546875 100.570312 C 776.917969 100.570312 775.632812 102.011719 773.988281 103.84375 C 772.160156 105.902344 769.863281 108.460938 765.441406 108.460938 C 761.023438 108.460938 758.746094 105.902344 756.90625 103.84375 C 755.273438 102.011719 753.980469 100.570312 751.347656 100.570312 C 750.46875 100.570312 749.753906 100.738281 749.101562 101.023438 C 748.191406 105.503906 747.707031 110.144531 747.707031 114.910156 C 747.707031 115.691406 747.738281 116.464844 747.765625 117.234375 C 748.785156 116.832031 749.964844 116.574219 751.347656 116.574219 C 755.769531 116.574219 758.054688 119.136719 759.894531 121.191406 C 761.527344 123.023438 762.8125 124.46875 765.441406 124.46875 C 768.074219 124.46875 769.371094 123.023438 771.003906 121.191406 C 772.832031 119.136719 775.125 116.574219 779.546875 116.574219 C 783.96875 116.574219 786.253906 119.136719 788.085938 121.191406 C 789.726562 123.023438 791.023438 124.46875 793.644531 124.46875 C 796.273438 124.46875 797.570312 123.023438 799.203125 121.191406 C 801.042969 119.136719 803.316406 116.574219 807.738281 116.574219 C 812.160156 116.574219 814.457031 119.136719 816.285156 121.191406 C 817.925781 123.023438 819.222656 124.46875 821.84375 124.46875 C 824.484375 124.46875 825.769531 123.023438 827.414062 121.191406 C 829.253906 119.136719 831.539062 116.574219 835.960938 116.574219 L 835.960938 120.578125 C 833.328125 120.578125 832.03125 122.023438 830.390625 123.855469 C 828.5625 125.921875 826.277344 128.472656 821.84375 128.472656 C 817.433594 128.472656 815.136719 125.921875 813.308594 123.855469 C 811.667969 122.023438 810.371094 120.578125 807.738281 120.578125 C 805.117188 120.578125 803.820312 122.023438 802.179688 123.855469 C 800.351562 125.921875 798.066406 128.472656 793.644531 128.472656 C 789.222656 128.472656 786.9375 125.921875 785.109375 123.855469 C 783.464844 122.023438 782.179688 120.578125 779.546875 120.578125 C 776.917969 120.578125 775.632812 122.023438 773.988281 123.855469 C 772.160156 125.921875 769.863281 128.472656 765.441406 128.472656 C 761.023438 128.472656 758.746094 125.921875 756.90625 123.855469 C 755.273438 122.023438 753.980469 120.578125 751.347656 120.578125 C 749.953125 120.578125 748.933594 120.996094 748.035156 121.65625 C 748.628906 127.703125 750.003906 133.519531 752.039062 139.007812 C 756.015625 139.253906 758.152344 141.648438 759.894531 143.585938 C 761.527344 145.425781 762.8125 146.871094 765.441406 146.871094 C 768.074219 146.871094 769.371094 145.425781 771.003906 143.585938 C 772.832031 141.539062 775.125 138.976562 779.546875 138.976562 C 783.96875 138.976562 786.253906 141.539062 788.085938 143.585938 C 789.726562 145.425781 791.023438 146.871094 793.644531 146.871094 C 796.273438 146.871094 797.570312 145.425781 799.203125 143.585938 C 801.042969 141.539062 803.316406 138.976562 807.738281 138.976562 C 812.160156 138.976562 814.457031 141.539062 816.285156 143.585938 C 817.925781 145.425781 819.222656 146.871094 821.84375 146.871094 C 824.484375 146.871094 825.769531 145.425781 827.414062 143.585938 C 829.253906 141.539062 831.539062 138.976562 835.960938 138.976562 L 835.960938 142.984375 C 833.328125 142.984375 832.03125 144.429688 830.390625 146.257812 C 828.5625 148.316406 826.277344 150.878906 821.84375 150.878906 C 817.433594 150.878906 815.136719 148.316406 813.308594 146.257812 C 811.667969 144.429688 810.371094 142.984375 807.738281 142.984375 C 805.117188 142.984375 803.820312 144.429688 802.179688 146.257812 C 800.351562 148.316406 798.066406 150.878906 793.644531 150.878906 C 789.222656 150.878906 786.9375 148.316406 785.109375 146.257812 C 783.464844 144.429688 782.179688 142.984375 779.546875 142.984375 C 776.917969 142.984375 775.632812 144.429688 773.988281 146.257812 C 772.160156 148.316406 769.863281 150.878906 765.441406 150.878906 C 761.023438 150.878906 758.746094 148.316406 756.90625 146.257812 C 755.925781 145.160156 755.066406 144.210938 753.980469 143.625 C 757.964844 152.300781 763.691406 160.007812 770.726562 166.308594 L 771.003906 166 C 772.832031 163.933594 775.125 161.371094 779.546875 161.371094 C 783.96875 161.371094 786.253906 163.933594 788.085938 166 C 789.726562 167.820312 791.023438 169.273438 793.644531 169.273438 C 796.273438 169.273438 797.570312 167.820312 799.203125 166 C 801.042969 163.933594 803.316406 161.371094 807.738281 161.371094 C 812.160156 161.371094 814.457031 163.933594 816.285156 166 C 817.925781 167.820312 819.222656 169.273438 821.84375 169.273438 C 824.484375 169.273438 825.769531 167.820312 827.414062 165.992188 C 829.253906 163.933594 831.539062 161.371094 835.960938 161.371094 L 835.960938 165.386719 C 833.328125 165.386719 832.03125 166.832031 830.390625 168.660156 C 828.5625 170.71875 826.277344 173.28125 821.84375 173.28125 C 817.433594 173.28125 815.136719 170.71875 813.308594 168.660156 C 811.667969 166.832031 810.371094 165.386719 807.738281 165.386719 C 805.117188 165.386719 803.820312 166.832031 802.179688 168.660156 C 800.351562 170.71875 798.066406 173.28125 793.644531 173.28125 C 789.222656 173.28125 786.9375 170.71875 785.109375 168.660156 C 783.464844 166.832031 782.179688 165.386719 779.546875 165.386719 C 776.917969 165.386719 775.632812 166.832031 773.988281 168.660156 L 773.792969 168.878906 C 785.550781 178.226562 800.429688 183.816406 816.613281 183.816406 C 854.675781 183.816406 885.527344 152.964844 885.527344 114.910156 C 885.527344 76.847656 854.675781 45.988281 816.613281 45.988281 " fill-opacity="1" fill-rule="nonzero"/></g><path fill="#34419f" d="M 118.015625 218.464844 C 104.542969 218.464844 91.992188 222.34375 81.378906 229.019531 C 85.511719 229.1875 87.71875 231.640625 89.488281 233.628906 C 91.121094 235.449219 92.417969 236.902344 95.039062 236.902344 C 97.679688 236.902344 98.964844 235.449219 100.597656 233.628906 C 102.4375 231.5625 104.722656 229.011719 109.144531 229.011719 C 113.5625 229.011719 115.847656 231.5625 117.6875 233.628906 C 119.320312 235.449219 120.617188 236.902344 123.246094 236.902344 C 125.878906 236.902344 127.164062 235.449219 128.808594 233.628906 C 130.648438 231.5625 132.933594 229.011719 137.351562 229.011719 L 137.351562 233.015625 C 134.722656 233.015625 133.4375 234.460938 131.792969 236.289062 C 129.953125 238.347656 127.667969 240.910156 123.246094 240.910156 C 118.828125 240.910156 116.542969 238.347656 114.703125 236.289062 C 113.070312 234.460938 111.773438 233.015625 109.144531 233.015625 C 106.511719 233.015625 105.214844 234.460938 103.582031 236.289062 C 101.742188 238.347656 99.46875 240.910156 95.039062 240.910156 C 90.617188 240.910156 88.339844 238.347656 86.5 236.289062 C 84.867188 234.460938 83.574219 233.015625 80.941406 233.015625 C 78.3125 233.015625 77.023438 234.460938 75.394531 236.289062 C 73.59375 238.296875 71.367188 240.78125 67.152344 240.898438 C 64.167969 244.152344 61.496094 247.695312 59.179688 251.484375 C 59.980469 252.175781 60.664062 252.9375 61.289062 253.628906 C 62.917969 255.46875 64.214844 256.914062 66.847656 256.914062 C 69.476562 256.914062 70.773438 255.46875 72.40625 253.628906 C 74.234375 251.582031 76.519531 249.019531 80.941406 249.019531 C 85.363281 249.019531 87.648438 251.582031 89.488281 253.628906 C 91.121094 255.46875 92.417969 256.914062 95.039062 256.914062 C 97.679688 256.914062 98.964844 255.46875 100.597656 253.628906 C 102.4375 251.582031 104.722656 249.019531 109.144531 249.019531 C 113.5625 249.019531 115.847656 251.582031 117.6875 253.628906 C 119.320312 255.46875 120.617188 256.914062 123.246094 256.914062 C 125.878906 256.914062 127.164062 255.46875 128.808594 253.628906 C 130.648438 251.582031 132.933594 249.019531 137.351562 249.019531 L 137.351562 253.027344 C 134.722656 253.027344 133.4375 254.472656 131.792969 256.300781 C 129.953125 258.359375 127.667969 260.921875 123.246094 260.921875 C 118.828125 260.921875 116.542969 258.359375 114.703125 256.300781 C 113.070312 254.472656 111.773438 253.027344 109.144531 253.027344 C 106.511719 253.027344 105.214844 254.472656 103.582031 256.300781 C 101.742188 258.359375 99.46875 260.921875 95.039062 260.921875 C 90.617188 260.921875 88.339844 258.359375 86.5 256.300781 C 84.867188 254.472656 83.574219 253.027344 80.941406 253.027344 C 78.3125 253.027344 77.023438 254.472656 75.394531 256.300781 C 73.554688 258.359375 71.269531 260.921875 66.847656 260.921875 C 62.425781 260.921875 60.140625 258.359375 58.308594 256.300781 C 57.90625 255.867188 57.527344 255.441406 57.152344 255.054688 C 54.800781 259.476562 52.929688 264.175781 51.574219 269.101562 C 51.949219 269.0625 52.335938 269.03125 52.75 269.03125 C 57.171875 269.03125 59.449219 271.59375 61.289062 273.648438 C 62.917969 275.480469 64.214844 276.925781 66.847656 276.925781 C 69.476562 276.925781 70.773438 275.480469 72.40625 273.648438 C 74.234375 271.59375 76.519531 269.03125 80.941406 269.03125 C 85.363281 269.03125 87.648438 271.59375 89.488281 273.648438 C 91.121094 275.480469 92.417969 276.925781 95.039062 276.925781 C 97.679688 276.925781 98.964844 275.480469 100.597656 273.648438 C 102.4375 271.59375 104.722656 269.03125 109.144531 269.03125 C 113.5625 269.03125 115.847656 271.59375 117.6875 273.648438 C 119.320312 275.480469 120.617188 276.925781 123.246094 276.925781 C 125.878906 276.925781 127.164062 275.480469 128.808594 273.648438 C 130.648438 271.59375 132.933594 269.03125 137.351562 269.03125 L 137.351562 273.039062 C 134.722656 273.039062 133.4375 274.480469 131.792969 276.3125 C 129.953125 278.378906 127.667969 280.929688 123.246094 280.929688 C 118.828125 280.929688 116.542969 278.378906 114.703125 276.3125 C 113.070312 274.480469 111.773438 273.039062 109.144531 273.039062 C 106.511719 273.039062 105.214844 274.480469 103.582031 276.3125 C 101.742188 278.378906 99.46875 280.929688 95.039062 280.929688 C 90.617188 280.929688 88.339844 278.378906 86.5 276.3125 C 84.867188 274.480469 83.574219 273.039062 80.941406 273.039062 C 78.3125 273.039062 77.023438 274.480469 75.394531 276.3125 C 73.554688 278.378906 71.269531 280.929688 66.847656 280.929688 C 62.425781 280.929688 60.140625 278.378906 58.308594 276.3125 C 56.667969 274.480469 55.371094 273.039062 52.75 273.039062 C 51.871094 273.039062 51.148438 273.214844 50.507812 273.492188 C 49.585938 277.972656 49.109375 282.621094 49.109375 287.378906 C 49.109375 288.160156 49.140625 288.933594 49.160156 289.703125 C 50.1875 289.296875 51.355469 289.042969 52.75 289.042969 C 57.171875 289.042969 59.449219 291.601562 61.289062 293.660156 C 62.917969 295.492188 64.214844 296.945312 66.847656 296.945312 C 69.476562 296.945312 70.773438 295.492188 72.40625 293.660156 C 74.234375 291.601562 76.519531 289.042969 80.941406 289.042969 C 85.363281 289.042969 87.648438 291.601562 89.488281 293.660156 C 91.121094 295.492188 92.417969 296.945312 95.039062 296.945312 C 97.679688 296.945312 98.964844 295.492188 100.597656 293.660156 C 102.4375 291.601562 104.722656 289.042969 109.144531 289.042969 C 113.5625 289.042969 115.847656 291.601562 117.6875 293.660156 C 119.320312 295.492188 120.617188 296.945312 123.246094 296.945312 C 125.878906 296.945312 127.164062 295.492188 128.808594 293.660156 C 130.648438 291.601562 132.933594 289.042969 137.351562 289.042969 L 137.351562 293.046875 C 134.722656 293.046875 133.4375 294.5 131.792969 296.320312 C 129.953125 298.390625 127.667969 300.949219 123.246094 300.949219 C 118.828125 300.949219 116.542969 298.390625 114.703125 296.320312 C 113.070312 294.5 111.773438 293.046875 109.144531 293.046875 C 106.511719 293.046875 105.214844 294.5 103.582031 296.320312 C 101.742188 298.390625 99.46875 300.949219 95.039062 300.949219 C 90.617188 300.949219 88.339844 298.390625 86.5 296.320312 C 84.867188 294.5 83.574219 293.046875 80.941406 293.046875 C 78.3125 293.046875 77.023438 294.5 75.394531 296.320312 C 73.554688 298.390625 71.269531 300.949219 66.847656 300.949219 C 62.425781 300.949219 60.140625 298.390625 58.308594 296.320312 C 56.667969 294.5 55.371094 293.046875 52.75 293.046875 C 51.347656 293.046875 50.328125 293.472656 49.4375 294.125 C 50.03125 300.179688 51.394531 305.984375 53.445312 311.476562 C 57.410156 311.722656 59.558594 314.117188 61.289062 316.066406 C 62.917969 317.894531 64.214844 319.339844 66.847656 319.339844 C 69.476562 319.339844 70.773438 317.894531 72.40625 316.066406 C 74.234375 314.007812 76.519531 311.445312 80.941406 311.445312 C 85.363281 311.445312 87.648438 314.007812 89.488281 316.066406 C 91.121094 317.894531 92.417969 319.339844 95.039062 319.339844 C 97.679688 319.339844 98.964844 317.894531 100.597656 316.066406 C 102.4375 314.007812 104.722656 311.445312 109.144531 311.445312 C 113.5625 311.445312 115.847656 314.007812 117.6875 316.066406 C 119.320312 317.894531 120.617188 319.339844 123.246094 319.339844 C 125.878906 319.339844 127.164062 317.894531 128.808594 316.066406 C 130.648438 314.007812 132.933594 311.445312 137.351562 311.445312 L 137.351562 315.453125 C 134.722656 315.453125 133.4375 316.894531 131.792969 318.726562 C 129.953125 320.792969 127.667969 323.34375 123.246094 323.34375 C 118.828125 323.34375 116.542969 320.792969 114.703125 318.726562 C 113.070312 316.894531 111.773438 315.453125 109.144531 315.453125 C 106.511719 315.453125 105.214844 316.894531 103.582031 318.726562 C 101.742188 320.792969 99.46875 323.34375 95.039062 323.34375 C 90.617188 323.34375 88.339844 320.792969 86.5 318.726562 C 84.867188 316.894531 83.574219 315.453125 80.941406 315.453125 C 78.3125 315.453125 77.023438 316.894531 75.394531 318.726562 C 73.554688 320.792969 71.269531 323.34375 66.847656 323.34375 C 62.425781 323.34375 60.140625 320.792969 58.308594 318.726562 C 57.332031 317.636719 56.460938 316.6875 55.371094 316.085938 C 59.359375 324.78125 65.085938 332.484375 72.117188 338.765625 L 72.40625 338.460938 C 74.234375 336.410156 76.519531 333.851562 80.941406 333.851562 C 85.363281 333.851562 87.648438 336.410156 89.488281 338.460938 C 91.121094 340.300781 92.417969 341.742188 95.039062 341.742188 C 97.679688 341.742188 98.964844 340.300781 100.597656 338.460938 C 102.4375 336.410156 104.722656 333.851562 109.144531 333.851562 C 113.5625 333.851562 115.847656 336.410156 117.6875 338.460938 C 119.320312 340.300781 120.617188 341.742188 123.246094 341.742188 C 125.878906 341.742188 127.164062 340.300781 128.808594 338.460938 C 130.648438 336.410156 132.933594 333.851562 137.351562 333.851562 L 137.351562 337.855469 C 134.722656 337.855469 133.4375 339.300781 131.792969 341.128906 C 129.953125 343.1875 127.667969 345.75 123.246094 345.75 C 118.828125 345.75 116.542969 343.1875 114.703125 341.128906 C 113.070312 339.300781 111.773438 337.855469 109.144531 337.855469 C 106.511719 337.855469 105.214844 339.300781 103.582031 341.128906 C 101.742188 343.1875 99.46875 345.75 95.039062 345.75 C 90.617188 345.75 88.339844 343.1875 86.5 341.128906 C 84.867188 339.300781 83.574219 337.855469 80.941406 337.855469 C 78.3125 337.855469 77.023438 339.300781 75.394531 341.128906 L 75.195312 341.347656 C 86.957031 350.683594 101.832031 356.285156 118.015625 356.285156 C 156.078125 356.285156 186.929688 325.441406 186.929688 287.378906 C 186.929688 249.316406 156.078125 218.464844 118.015625 218.464844 " fill-opacity="1" fill-rule="nonzero"/><path fill="#faec22" d="M 678.308594 732.804688 L 593.648438 763.972656 L 508.976562 737.957031 L 596.230469 707.34375 L 678.308594 732.804688 " fill-opacity="1" fill-rule="nonzero"/><g clip-path="url(#id5)"><path fill="#ec329b" d="M 678.308594 822.351562 L 593.648438 853.519531 L 593.648438 763.972656 L 678.308594 732.804688 L 678.308594 822.351562 " fill-opacity="1" fill-rule="nonzero"/></g><g clip-path="url(#id6)"><path fill="#45bfa0" d="M 508.976562 827.148438 L 593.648438 853.519531 L 593.648438 763.972656 L 508.976562 737.601562 L 508.976562 827.148438 " fill-opacity="1" fill-rule="nonzero"/></g><g clip-path="url(#id7)"><path fill="#faec22" d="M 929.503906 163.164062 L 880.976562 181.027344 L 832.4375 166.121094 L 882.449219 148.5625 L 929.503906 163.164062 " fill-opacity="1" fill-rule="nonzero"/></g><g clip-path="url(#id8)"><path fill="#45bfa0" d="M 832.4375 217.25 L 880.976562 232.363281 L 880.976562 181.027344 L 832.4375 165.914062 L 832.4375 217.25 " fill-opacity="1" fill-rule="nonzero"/></g><path fill="#faec22" d="M 508.816406 276.695312 L 479.804688 287.371094 L 450.792969 278.46875 L 480.6875 267.972656 L 508.816406 276.695312 " fill-opacity="1" fill-rule="nonzero"/><path fill="#ec329b" d="M 508.816406 307.378906 L 479.804688 318.054688 L 479.804688 287.371094 L 508.816406 276.695312 L 508.816406 307.378906 " fill-opacity="1" fill-rule="nonzero"/><path fill="#45bfa0" d="M 450.792969 309.023438 L 479.804688 318.054688 L 479.804688 287.371094 L 450.792969 278.347656 L 450.792969 309.023438 " fill-opacity="1" fill-rule="nonzero"/><path fill="#ee1b91" d="M 577.988281 664.019531 L 403.890625 588.140625 L 479.777344 414.039062 L 653.878906 489.929688 L 577.988281 664.019531 " fill-opacity="1" fill-rule="nonzero"/><path fill="#593595" d="M 686.578125 488.363281 L 512.476562 412.476562 L 514.851562 407.027344 L 688.953125 482.914062 L 686.578125 488.363281 " fill-opacity="1" fill-rule="nonzero"/><path fill="#593595" d="M 682.492188 497.742188 L 508.394531 421.855469 L 510.777344 416.394531 L 684.867188 492.28125 L 682.492188 497.742188 " fill-opacity="1" fill-rule="nonzero"/><path fill="#593595" d="M 678.40625 507.109375 L 504.308594 431.222656 L 506.691406 425.773438 L 680.792969 501.648438 L 678.40625 507.109375 " fill-opacity="1" fill-rule="nonzero"/><path fill="#593595" d="M 674.332031 516.476562 L 500.234375 440.589844 L 502.605469 435.140625 L 676.695312 511.027344 L 674.332031 516.476562 " fill-opacity="1" fill-rule="nonzero"/><path fill="#593595" d="M 670.238281 525.84375 L 496.148438 449.957031 L 498.519531 444.507812 L 672.621094 520.394531 L 670.238281 525.84375 " fill-opacity="1" fill-rule="nonzero"/><path fill="#593595" d="M 666.164062 535.210938 L 492.0625 459.324219 L 494.4375 453.875 L 668.535156 529.761719 L 666.164062 535.210938 " fill-opacity="1" fill-rule="nonzero"/><path fill="#593595" d="M 662.078125 544.589844 L 487.976562 468.699219 L 490.351562 463.242188 L 664.449219 539.128906 L 662.078125 544.589844 " fill-opacity="1" fill-rule="nonzero"/><path fill="#593595" d="M 657.992188 553.957031 L 483.890625 478.066406 L 486.265625 472.617188 L 660.367188 548.496094 L 657.992188 553.957031 " fill-opacity="1" fill-rule="nonzero"/><path fill="#593595" d="M 653.90625 563.324219 L 479.804688 487.433594 L 482.191406 481.984375 L 656.28125 557.871094 L 653.90625 563.324219 " fill-opacity="1" fill-rule="nonzero"/><path fill="#593595" d="M 649.820312 572.691406 L 475.722656 496.800781 L 478.105469 491.351562 L 652.195312 567.238281 L 649.820312 572.691406 " fill-opacity="1" fill-rule="nonzero"/><path fill="#593595" d="M 645.734375 582.058594 L 471.644531 506.179688 L 474.019531 500.71875 L 648.109375 576.617188 L 645.734375 582.058594 " fill-opacity="1" fill-rule="nonzero"/><path fill="#593595" d="M 641.652344 591.433594 L 467.5625 515.546875 L 469.933594 510.085938 L 644.035156 585.972656 L 641.652344 591.433594 " fill-opacity="1" fill-rule="nonzero"/><path fill="#593595" d="M 637.566406 600.800781 L 463.476562 524.914062 L 465.851562 519.464844 L 639.949219 595.339844 L 637.566406 600.800781 " fill-opacity="1" fill-rule="nonzero"/><path fill="#593595" d="M 633.492188 610.167969 L 459.390625 534.28125 L 461.765625 528.832031 L 635.855469 604.71875 L 633.492188 610.167969 " fill-opacity="1" fill-rule="nonzero"/><path fill="#593595" d="M 629.40625 619.535156 L 455.304688 543.648438 L 457.679688 538.199219 L 631.78125 614.097656 L 629.40625 619.535156 " fill-opacity="1" fill-rule="nonzero"/><path fill="#593595" d="M 625.320312 628.902344 L 451.21875 553.027344 L 453.59375 547.566406 L 627.695312 623.464844 L 625.320312 628.902344 " fill-opacity="1" fill-rule="nonzero"/><path fill="#593595" d="M 621.234375 638.28125 L 447.136719 562.394531 L 449.519531 556.933594 L 623.609375 632.820312 L 621.234375 638.28125 " fill-opacity="1" fill-rule="nonzero"/><path fill="#593595" d="M 617.148438 647.648438 L 443.058594 571.761719 L 445.421875 566.308594 L 619.523438 642.199219 L 617.148438 647.648438 " fill-opacity="1" fill-rule="nonzero"/><path fill="#593595" d="M 613.066406 657.015625 L 438.972656 581.128906 L 441.339844 575.675781 L 615.4375 651.566406 L 613.066406 657.015625 " fill-opacity="1" fill-rule="nonzero"/><path fill="#ee1b91" d="M 0 266.597656 L 187.1875 193.054688 L 113.199219 4.699219 L 0 49.171875 L 0 266.597656 " fill-opacity="1" fill-rule="nonzero"/><g clip-path="url(#id9)"><path fill="#593595" d="M 65.054688 0.210938 L 0 25.769531 L 0 32.566406 L 82.386719 0.210938 L 65.054688 0.210938 " fill-opacity="1" fill-rule="nonzero"/></g><g clip-path="url(#id10)"><path fill="#593595" d="M 94.839844 0.210938 L 0 37.472656 L 0 44.265625 L 112.160156 0.210938 L 94.839844 0.210938 " fill-opacity="1" fill-rule="nonzero"/></g><g clip-path="url(#id11)"><path fill="#593595" d="M 124.632812 0.210938 L 0 49.171875 L 0 55.976562 L 141.960938 0.210938 L 124.632812 0.210938 " fill-opacity="1" fill-rule="nonzero"/></g><path fill="#593595" d="M 0 67.679688 L 148.609375 9.300781 L 146.285156 3.40625 L 0 60.863281 L 0 67.679688 " fill-opacity="1" fill-rule="nonzero"/><path fill="#593595" d="M 0 79.382812 L 152.585938 19.4375 L 150.273438 13.535156 L 0 72.566406 L 0 79.382812 " fill-opacity="1" fill-rule="nonzero"/><path fill="#593595" d="M 0 91.082031 L 156.574219 29.566406 L 154.246094 23.671875 L 0 84.269531 L 0 91.082031 " fill-opacity="1" fill-rule="nonzero"/><path fill="#593595" d="M 0 102.785156 L 160.558594 39.707031 L 158.234375 33.8125 L 0 95.96875 L 0 102.785156 " fill-opacity="1" fill-rule="nonzero"/><path fill="#593595" d="M 0 114.488281 L 164.535156 49.84375 L 162.210938 43.949219 L 0 107.679688 L 0 114.488281 " fill-opacity="1" fill-rule="nonzero"/><path fill="#593595" d="M 0 126.1875 L 168.511719 59.984375 L 166.207031 54.078125 L 0 119.382812 L 0 126.1875 " fill-opacity="1" fill-rule="nonzero"/><path fill="#593595" d="M 0 137.878906 L 172.496094 70.113281 L 170.183594 64.21875 L 0 131.085938 L 0 137.878906 " fill-opacity="1" fill-rule="nonzero"/><path fill="#593595" d="M 0 149.582031 L 176.484375 80.253906 L 174.160156 74.355469 L 0 142.785156 L 0 149.582031 " fill-opacity="1" fill-rule="nonzero"/><path fill="#593595" d="M 0 161.28125 L 180.46875 90.390625 L 178.144531 84.496094 L 0 154.488281 L 0 161.28125 " fill-opacity="1" fill-rule="nonzero"/><path fill="#593595" d="M 0 172.984375 L 184.445312 100.53125 L 182.121094 94.625 L 0 166.1875 L 0 172.984375 " fill-opacity="1" fill-rule="nonzero"/><path fill="#593595" d="M 186.109375 104.761719 L 0 177.882812 L 0 184.46875 L 0.078125 184.667969 L 188.421875 110.660156 L 186.109375 104.761719 " fill-opacity="1" fill-rule="nonzero"/><path fill="#593595" d="M 192.410156 120.796875 L 4.054688 194.804688 L 1.742188 188.898438 L 190.09375 114.910156 L 192.410156 120.796875 " fill-opacity="1" fill-rule="nonzero"/><path fill="#593595" d="M 196.386719 130.945312 L 8.042969 204.933594 L 5.726562 199.039062 L 194.070312 125.050781 L 196.386719 130.945312 " fill-opacity="1" fill-rule="nonzero"/><path fill="#593595" d="M 200.382812 141.074219 L 12.019531 215.074219 L 9.703125 209.167969 L 198.058594 135.179688 L 200.382812 141.074219 " fill-opacity="1" fill-rule="nonzero"/><path fill="#593595" d="M 204.359375 151.214844 L 16.003906 225.210938 L 13.691406 219.304688 L 202.042969 145.316406 L 204.359375 151.214844 " fill-opacity="1" fill-rule="nonzero"/><path fill="#593595" d="M 208.34375 161.351562 L 19.992188 235.339844 L 17.667969 229.445312 L 206.019531 155.457031 L 208.34375 161.351562 " fill-opacity="1" fill-rule="nonzero"/><path fill="#f5a33f" d="M 189.074219 102.84375 L 118.015625 132.332031 L 118.015625 218.328125 L 189.074219 188.839844 L 189.074219 102.84375 " fill-opacity="1" fill-rule="nonzero"/><path fill="#fbf49b" d="M 189.074219 188.839844 L 118.015625 218.328125 L 189.074219 247.804688 L 260.144531 218.328125 L 189.074219 188.839844 " fill-opacity="1" fill-rule="nonzero"/><path fill="#f9de3f" d="M 189.074219 102.84375 L 260.144531 132.332031 L 260.144531 218.328125 L 189.074219 188.839844 L 189.074219 102.84375 " fill-opacity="1" fill-rule="nonzero"/><path fill="#66ccd8" d="M 499.957031 704.582031 L 458.511719 721.558594 L 341.019531 434.753906 L 382.464844 417.769531 L 499.957031 704.582031 " fill-opacity="1" fill-rule="nonzero"/><path fill="#fff42e" d="M 510.421875 682.871094 L 468.976562 699.855469 L 351.484375 413.042969 L 392.941406 396.058594 L 510.421875 682.871094 " fill-opacity="1" fill-rule="nonzero"/><g clip-path="url(#id12)"><path fill="#ed1570" d="M 113.929688 1045.40625 L 72.59375 1028.152344 L 191.875 742.089844 L 233.210938 759.324219 L 113.929688 1045.40625 " fill-opacity="1" fill-rule="nonzero"/></g><g clip-path="url(#id13)"><path fill="#fff42e" d="M 136.671875 1037.410156 L 95.335938 1020.171875 L 214.617188 734.097656 L 255.953125 751.339844 L 136.671875 1037.410156 " fill-opacity="1" fill-rule="nonzero"/></g><path fill="#fff429" d="M 176.820312 498.671875 L 174.652344 497.347656 L 116.640625 592.414062 L 110.921875 601.769531 L 165.207031 592.582031 L 131.496094 630.386719 L 131.496094 630.398438 L 125.1875 637.46875 L 76.074219 692.566406 L 104.730469 645.699219 L 104.78125 645.589844 L 102.515625 644.460938 L 104.683594 645.777344 L 123.40625 615.164062 L 93.019531 619.339844 L 80.171875 621.109375 L 178.777344 500.265625 L 176.820312 498.671875 L 174.652344 497.347656 L 176.820312 498.671875 L 174.863281 497.070312 L 68.101562 627.875 L 93.710938 624.351562 L 113.503906 621.632812 L 100.300781 643.226562 L 100.300781 643.234375 L 57.054688 713.960938 L 61.101562 716.96875 L 128.976562 640.84375 L 136.5625 632.324219 L 136.5625 632.316406 L 178.589844 585.171875 L 115.550781 595.855469 L 115.976562 598.359375 L 118.144531 599.675781 L 120.964844 595.054688 L 178.976562 499.988281 L 174.863281 497.070312 L 176.820312 498.671875 " fill-opacity="1" fill-rule="nonzero"/><path fill="#fff429" d="M 310.582031 262.859375 L 291.652344 293.878906 L 290.730469 295.382812 L 308.980469 292.296875 L 296.625 306.152344 L 294.351562 308.695312 L 272.214844 333.542969 L 286.339844 310.4375 L 291.542969 301.929688 L 283.351562 303.058594 L 277.082031 303.917969 L 310.582031 262.859375 " fill-opacity="1" fill-rule="nonzero"/><path fill="#fff429" d="M 802.488281 676.886719 L 783.5625 707.90625 L 782.632812 709.410156 L 800.882812 706.324219 L 788.53125 720.183594 L 786.265625 722.722656 L 764.117188 747.570312 L 778.253906 724.464844 L 783.445312 715.949219 L 775.253906 717.085938 L 768.984375 717.9375 L 802.488281 676.886719 " fill-opacity="1" fill-rule="nonzero"/><path fill="#fff429" d="M 44.097656 329.546875 L 25.164062 360.566406 L 24.242188 362.070312 L 42.492188 358.984375 L 30.140625 372.84375 L 27.863281 375.382812 L 5.726562 400.230469 L 19.851562 377.125 L 25.054688 368.617188 L 16.863281 369.746094 L 10.59375 370.605469 L 44.097656 329.546875 " fill-opacity="1" fill-rule="nonzero"/><path fill="#fff429" d="M 674.460938 262.207031 L 673.226562 262.363281 L 680.265625 316.828125 L 680.613281 319.476562 L 680.960938 322.1875 L 698.980469 301.902344 L 697.65625 327.675781 L 697.667969 327.675781 L 697.457031 331.503906 L 695.589844 367.867188 L 692.148438 341.042969 L 689.890625 323.484375 L 679.496094 334.472656 L 675.105469 339.121094 L 675.707031 262.214844 L 674.460938 262.207031 L 673.226562 262.363281 L 674.460938 262.207031 L 673.214844 262.195312 L 672.550781 345.441406 L 681.316406 336.183594 L 688.082031 329.03125 L 689.664062 341.359375 L 694.878906 381.960938 L 697.371094 381.863281 L 699.960938 331.632812 L 700.289062 325.183594 L 701.851562 294.925781 L 680.910156 318.488281 L 681.851562 319.320312 L 683.085938 319.152344 L 682.742188 316.511719 L 675.699219 262.046875 L 673.214844 262.195312 L 674.460938 262.207031 " fill-opacity="1" fill-rule="nonzero"/><path fill="#fff429" d="M 247.484375 14.5625 L 246.25 14.722656 L 253.292969 69.191406 L 253.628906 71.835938 L 253.984375 74.554688 L 272.015625 54.257812 L 270.679688 80.042969 L 270.484375 83.863281 L 268.613281 120.214844 L 265.171875 93.398438 L 263.933594 93.554688 L 265.179688 93.554688 L 265.179688 93.476562 L 262.914062 75.839844 L 252.519531 86.828125 L 248.128906 91.480469 L 248.730469 14.574219 L 247.484375 14.5625 L 246.25 14.722656 L 247.484375 14.5625 L 246.238281 14.550781 L 245.574219 97.808594 L 254.339844 88.550781 L 261.105469 81.390625 L 262.6875 93.714844 L 263.933594 93.554688 L 262.679688 93.554688 L 262.679688 93.636719 L 267.910156 134.320312 L 270.394531 134.21875 L 272.984375 83.992188 L 273.3125 77.542969 L 274.875 47.273438 L 253.933594 70.84375 L 254.875 71.675781 L 256.109375 71.519531 L 255.765625 68.867188 L 248.722656 14.40625 L 246.238281 14.550781 L 247.484375 14.5625 " fill-opacity="1" fill-rule="nonzero"/><g clip-path="url(#id14)"><path fill="#ed6bbc" d="M 849.144531 522.046875 L 783.308594 535.882812 L 827.839844 585.855469 L 849.144531 522.046875 " fill-opacity="1" fill-rule="nonzero"/></g><path fill="#f7e904" d="M 506.808594 82.832031 L 475.046875 185.476562 L 527.207031 173.785156 L 579.363281 162.085938 L 506.808594 82.832031 " fill-opacity="1" fill-rule="nonzero"/><path fill="#f7e904" d="M 761.128906 382.613281 L 752.800781 409.511719 L 766.472656 406.445312 L 780.140625 403.386719 L 761.128906 382.613281 " fill-opacity="1" fill-rule="nonzero"/><path fill="#151635" d="M 296.132812 554.183594 L 274.339844 624.640625 L 310.136719 616.609375 L 345.914062 608.585938 L 296.132812 554.183594 " fill-opacity="1" fill-rule="nonzero"/><g clip-path="url(#id15)"><path fill="#151635" d="M 631.492188 0.210938 L 599.871094 102.398438 L 692.613281 81.597656 L 785.304688 60.804688 L 729.84375 0.210938 L 631.492188 0.210938 " fill-opacity="1" fill-rule="nonzero"/></g><path fill="#ed6bbc" d="M 69.4375 428.460938 L 78.90625 535.507812 L 122.753906 504.921875 L 166.59375 474.347656 L 69.4375 428.460938 " fill-opacity="1" fill-rule="nonzero"/></svg>