<svg id="visual" viewBox="0 0 1280 200" width="1280" height="200" xmlns="http://www.w3.org/2000/svg" xmlns:xlink="http://www.w3.org/1999/xlink" version="1.1"><path d="M0 76L12.5 87.2C25 98.3 50 120.7 75.2 114.5C100.3 108.3 125.7 73.7 150.8 64.2C176 54.7 201 70.3 226 86.7C251 103 276 120 301 124.7C326 129.3 351 121.7 376.2 107C401.3 92.3 426.7 70.7 451.8 71.2C477 71.7 502 94.3 527 105C552 115.7 577 114.3 602.2 105.2C627.3 96 652.7 79 677.8 73.7C703 68.3 728 74.7 753 80.7C778 86.7 803 92.3 828.2 86.3C853.3 80.3 878.7 62.7 903.8 49C929 35.3 954 25.7 979 41.7C1004 57.7 1029 99.3 1054 118C1079 136.7 1104 132.3 1129.2 130.7C1154.3 129 1179.7 130 1204.8 123C1230 116 1255 101 1267.5 93.5L1280 86L1280 201L1267.5 201C1255 201 1230 201 1204.8 201C1179.7 201 1154.3 201 1129.2 201C1104 201 1079 201 1054 201C1029 201 1004 201 979 201C954 201 929 201 903.8 201C878.7 201 853.3 201 828.2 201C803 201 778 201 753 201C728 201 703 201 677.8 201C652.7 201 627.3 201 602.2 201C577 201 552 201 527 201C502 201 477 201 451.8 201C426.7 201 401.3 201 376.2 201C351 201 326 201 301 201C276 201 251 201 226 201C201 201 176 201 150.8 201C125.7 201 100.3 201 75.2 201C50 201 25 201 12.5 201L0 201Z" fill="#5e2a80"></path><path d="M0 153L12.5 150C25 147 50 141 75.2 141C100.3 141 125.7 147 150.8 140C176 133 201 113 226 109.3C251 105.7 276 118.3 301 115.2C326 112 351 93 376.2 95.5C401.3 98 426.7 122 451.8 131C477 140 502 134 527 132.7C552 131.3 577 134.7 602.2 127C627.3 119.3 652.7 100.7 677.8 94.7C703 88.7 728 95.3 753 105.8C778 116.3 803 130.7 828.2 136.2C853.3 141.7 878.7 138.3 903.8 137.5C929 136.7 954 138.3 979 133.2C1004 128 1029 116 1054 104.3C1079 92.7 1104 81.3 1129.2 75.2C1154.3 69 1179.7 68 1204.8 75C1230 82 1255 97 1267.5 104.5L1280 112L1280 201L1267.5 201C1255 201 1230 201 1204.8 201C1179.7 201 1154.3 201 1129.2 201C1104 201 1079 201 1054 201C1029 201 1004 201 979 201C954 201 929 201 903.8 201C878.7 201 853.3 201 828.2 201C803 201 778 201 753 201C728 201 703 201 677.8 201C652.7 201 627.3 201 602.2 201C577 201 552 201 527 201C502 201 477 201 451.8 201C426.7 201 401.3 201 376.2 201C351 201 326 201 301 201C276 201 251 201 226 201C201 201 176 201 150.8 201C125.7 201 100.3 201 75.2 201C50 201 25 201 12.5 201L0 201Z" fill="#7a3083"></path><path d="M0 115L12.5 109.3C25 103.7 50 92.3 75.2 94.8C100.3 97.3 125.7 113.7 150.8 115.5C176 117.3 201 104.7 226 99.2C251 93.7 276 95.3 301 103.2C326 111 351 125 376.2 129.7C401.3 134.3 426.7 129.7 451.8 128.8C477 128 502 131 527 125.3C552 119.7 577 105.3 602.2 109.7C627.3 114 652.7 137 677.8 143.2C703 149.3 728 138.7 753 136.5C778 134.3 803 140.7 828.2 145.2C853.3 149.7 878.7 152.3 903.8 147.3C929 142.3 954 129.7 979 128C1004 126.3 1029 135.7 1054 140.2C1079 144.7 1104 144.3 1129.2 133.3C1154.3 122.3 1179.7 100.7 1204.8 101.2C1230 101.7 1255 124.3 1267.5 135.7L1280 147L1280 201L1267.5 201C1255 201 1230 201 1204.8 201C1179.7 201 1154.3 201 1129.2 201C1104 201 1079 201 1054 201C1029 201 1004 201 979 201C954 201 929 201 903.8 201C878.7 201 853.3 201 828.2 201C803 201 778 201 753 201C728 201 703 201 677.8 201C652.7 201 627.3 201 602.2 201C577 201 552 201 527 201C502 201 477 201 451.8 201C426.7 201 401.3 201 376.2 201C351 201 326 201 301 201C276 201 251 201 226 201C201 201 176 201 150.8 201C125.7 201 100.3 201 75.2 201C50 201 25 201 12.5 201L0 201Z" fill="#943885"></path><path d="M0 141L12.5 146.5C25 152 50 163 75.2 168.5C100.3 174 125.7 174 150.8 164C176 154 201 134 226 126C251 118 276 122 301 124.8C326 127.7 351 129.3 376.2 133C401.3 136.7 426.7 142.3 451.8 140.2C477 138 502 128 527 133.2C552 138.3 577 158.7 602.2 157.7C627.3 156.7 652.7 134.3 677.8 123.5C703 112.7 728 113.3 753 118.3C778 123.3 803 132.7 828.2 134.7C853.3 136.7 878.7 131.3 903.8 129C929 126.7 954 127.3 979 131.2C1004 135 1029 142 1054 149.8C1079 157.7 1104 166.3 1129.2 163C1154.3 159.7 1179.7 144.3 1204.8 138.3C1230 132.3 1255 135.7 1267.5 137.3L1280 139L1280 201L1267.5 201C1255 201 1230 201 1204.8 201C1179.7 201 1154.3 201 1129.2 201C1104 201 1079 201 1054 201C1029 201 1004 201 979 201C954 201 929 201 903.8 201C878.7 201 853.3 201 828.2 201C803 201 778 201 753 201C728 201 703 201 677.8 201C652.7 201 627.3 201 602.2 201C577 201 552 201 527 201C502 201 477 201 451.8 201C426.7 201 401.3 201 376.2 201C351 201 326 201 301 201C276 201 251 201 226 201C201 201 176 201 150.8 201C125.7 201 100.3 201 75.2 201C50 201 25 201 12.5 201L0 201Z" fill="#ab4286"></path><path d="M0 169L12.5 170.3C25 171.7 50 174.3 75.2 173C100.3 171.7 125.7 166.3 150.8 161.5C176 156.7 201 152.3 226 152C251 151.7 276 155.3 301 157.5C326 159.7 351 160.3 376.2 160.3C401.3 160.3 426.7 159.7 451.8 159C477 158.3 502 157.7 527 154.8C552 152 577 147 602.2 152.7C627.3 158.3 652.7 174.7 677.8 180C703 185.3 728 179.7 753 175.8C778 172 803 170 828.2 171.7C853.3 173.3 878.7 178.7 903.8 177C929 175.3 954 166.7 979 166.2C1004 165.7 1029 173.3 1054 175.3C1079 177.3 1104 173.7 1129.2 167.2C1154.3 160.7 1179.7 151.3 1204.8 151.5C1230 151.7 1255 161.3 1267.5 166.2L1280 171L1280 201L1267.5 201C1255 201 1230 201 1204.8 201C1179.7 201 1154.3 201 1129.2 201C1104 201 1079 201 1054 201C1029 201 1004 201 979 201C954 201 929 201 903.8 201C878.7 201 853.3 201 828.2 201C803 201 778 201 753 201C728 201 703 201 677.8 201C652.7 201 627.3 201 602.2 201C577 201 552 201 527 201C502 201 477 201 451.8 201C426.7 201 401.3 201 376.2 201C351 201 326 201 301 201C276 201 251 201 226 201C201 201 176 201 150.8 201C125.7 201 100.3 201 75.2 201C50 201 25 201 12.5 201L0 201Z" fill="#c04e86"></path></svg>